<svg width="170" height="170" viewBox="0 0 170 170" fill="none" xmlns="http://www.w3.org/2000/svg">
<rect width="170" height="170" fill="#00AB37"/>
<path d="M44.9773 149.273V158H43.9545L39.1989 151.148H39.1136V158H38.0568V149.273H39.0795L43.8523 156.142H43.9375V149.273H44.9773ZM51.0806 155.324V151.455H52.0863V158H51.0806V156.892H51.0124C50.859 157.224 50.6204 157.507 50.2965 157.74C49.9727 157.97 49.5636 158.085 49.0692 158.085C48.6602 158.085 48.2965 157.996 47.9783 157.817C47.6602 157.635 47.4102 157.362 47.2283 156.999C47.0465 156.632 46.9556 156.17 46.9556 155.614V151.455H47.9613V155.545C47.9613 156.023 48.0948 156.403 48.3619 156.688C48.6317 156.972 48.9755 157.114 49.3931 157.114C49.6431 157.114 49.8974 157.05 50.1559 156.922C50.4173 156.794 50.636 156.598 50.8121 156.334C50.9911 156.07 51.0806 155.733 51.0806 155.324ZM49.0692 150.568L50.109 148.591H51.2852L49.9556 150.568H49.0692ZM53.9283 158V151.455H54.8999V152.477H54.9851C55.1214 152.128 55.3416 151.857 55.6456 151.663C55.9496 151.467 56.3146 151.369 56.7408 151.369C57.1726 151.369 57.532 151.467 57.8189 151.663C58.1087 151.857 58.3345 152.128 58.4964 152.477H58.5646C58.7322 152.139 58.9837 151.871 59.3189 151.672C59.6541 151.47 60.0561 151.369 60.5249 151.369C61.1101 151.369 61.5888 151.553 61.9609 151.919C62.3331 152.283 62.5192 152.849 62.5192 153.619V158H61.5135V153.619C61.5135 153.136 61.3814 152.791 61.1172 152.584C60.853 152.376 60.5419 152.273 60.1839 152.273C59.7237 152.273 59.3672 152.412 59.1143 152.69C58.8615 152.966 58.7351 153.315 58.7351 153.739V158H57.7124V153.517C57.7124 153.145 57.5916 152.845 57.3501 152.618C57.1087 152.388 56.7976 152.273 56.4169 152.273C56.1555 152.273 55.9112 152.342 55.6839 152.482C55.4595 152.621 55.2777 152.814 55.1385 153.061C55.0021 153.305 54.9339 153.588 54.9339 153.909V158H53.9283ZM67.1023 158.136C66.4716 158.136 65.9276 157.997 65.4702 157.719C65.0156 157.438 64.6648 157.045 64.4176 156.543C64.1733 156.037 64.0511 155.449 64.0511 154.778C64.0511 154.108 64.1733 153.517 64.4176 153.006C64.6648 152.491 65.0085 152.091 65.4489 151.804C65.892 151.514 66.4091 151.369 67 151.369C67.3409 151.369 67.6776 151.426 68.0099 151.54C68.3423 151.653 68.6449 151.838 68.9176 152.094C69.1903 152.347 69.4077 152.682 69.5696 153.099C69.7315 153.517 69.8125 154.031 69.8125 154.642V155.068H64.767V154.199H68.7898C68.7898 153.83 68.7159 153.5 68.5682 153.21C68.4233 152.92 68.2159 152.692 67.946 152.524C67.679 152.357 67.3636 152.273 67 152.273C66.5994 152.273 66.2528 152.372 65.9602 152.571C65.6705 152.767 65.4474 153.023 65.2912 153.338C65.1349 153.653 65.0568 153.991 65.0568 154.352V154.932C65.0568 155.426 65.142 155.845 65.3125 156.189C65.4858 156.53 65.7259 156.79 66.0327 156.969C66.3395 157.145 66.696 157.233 67.1023 157.233C67.3665 157.233 67.6051 157.196 67.8182 157.122C68.0341 157.045 68.2202 156.932 68.3764 156.781C68.5327 156.628 68.6534 156.437 68.7386 156.21L69.7102 156.483C69.608 156.812 69.4361 157.102 69.1946 157.352C68.9531 157.599 68.6548 157.793 68.2997 157.932C67.9446 158.068 67.5455 158.136 67.1023 158.136ZM71.3423 158V151.455H72.3139V152.443H72.3821C72.5014 152.119 72.7173 151.857 73.0298 151.655C73.3423 151.453 73.6946 151.352 74.0866 151.352C74.1605 151.352 74.2528 151.354 74.3636 151.357C74.4744 151.359 74.5582 151.364 74.6151 151.369V152.392C74.581 152.384 74.5028 152.371 74.3807 152.354C74.2614 152.334 74.1349 152.324 74.0014 152.324C73.6832 152.324 73.3991 152.391 73.1491 152.524C72.902 152.655 72.706 152.837 72.5611 153.07C72.419 153.3 72.348 153.562 72.348 153.858V158H71.3423ZM78.267 158.136C77.6761 158.136 77.1577 157.996 76.7116 157.714C76.2685 157.433 75.9219 157.04 75.6719 156.534C75.4247 156.028 75.3011 155.437 75.3011 154.761C75.3011 154.08 75.4247 153.484 75.6719 152.976C75.9219 152.467 76.2685 152.072 76.7116 151.791C77.1577 151.51 77.6761 151.369 78.267 151.369C78.858 151.369 79.375 151.51 79.8182 151.791C80.2642 152.072 80.6108 152.467 80.858 152.976C81.108 153.484 81.233 154.08 81.233 154.761C81.233 155.437 81.108 156.028 80.858 156.534C80.6108 157.04 80.2642 157.433 79.8182 157.714C79.375 157.996 78.858 158.136 78.267 158.136ZM78.267 157.233C78.7159 157.233 79.0852 157.118 79.375 156.888C79.6648 156.658 79.8793 156.355 80.0185 155.98C80.1577 155.605 80.2273 155.199 80.2273 154.761C80.2273 154.324 80.1577 153.916 80.0185 153.538C79.8793 153.161 79.6648 152.855 79.375 152.622C79.0852 152.389 78.7159 152.273 78.267 152.273C77.8182 152.273 77.4489 152.389 77.1591 152.622C76.8693 152.855 76.6548 153.161 76.5156 153.538C76.3764 153.916 76.3068 154.324 76.3068 154.761C76.3068 155.199 76.3764 155.605 76.5156 155.98C76.6548 156.355 76.8693 156.658 77.1591 156.888C77.4489 157.118 77.8182 157.233 78.267 157.233ZM88.6147 158.136C88.0692 158.136 87.5877 157.999 87.1701 157.723C86.7525 157.445 86.4258 157.053 86.19 156.547C85.9542 156.038 85.8363 155.438 85.8363 154.744C85.8363 154.057 85.9542 153.46 86.19 152.955C86.4258 152.449 86.7539 152.058 87.1744 151.783C87.5948 151.507 88.0806 151.369 88.6317 151.369C89.0579 151.369 89.3945 151.44 89.6417 151.582C89.8917 151.722 90.082 151.881 90.2127 152.06C90.3462 152.236 90.4499 152.381 90.5238 152.494H90.609V149.273H91.6147V158H90.6431V156.994H90.5238C90.4499 157.114 90.3448 157.264 90.2085 157.446C90.0721 157.625 89.8775 157.786 89.6246 157.928C89.3718 158.067 89.0352 158.136 88.6147 158.136ZM88.7511 157.233C89.1545 157.233 89.4954 157.128 89.7738 156.918C90.0522 156.705 90.2638 156.411 90.4087 156.036C90.5536 155.658 90.6261 155.222 90.6261 154.727C90.6261 154.239 90.555 153.811 90.413 153.445C90.271 153.075 90.0607 152.788 89.7823 152.584C89.5039 152.376 89.1602 152.273 88.7511 152.273C88.3249 152.273 87.9698 152.382 87.6857 152.601C87.4045 152.817 87.1928 153.111 87.0508 153.483C86.9116 153.852 86.842 154.267 86.842 154.727C86.842 155.193 86.913 155.616 87.055 155.997C87.1999 156.375 87.413 156.676 87.6942 156.901C87.9783 157.122 88.3306 157.233 88.7511 157.233ZM95.5224 158.153C95.1076 158.153 94.7312 158.075 94.3931 157.919C94.055 157.76 93.7866 157.531 93.5877 157.233C93.3888 156.932 93.2894 156.568 93.2894 156.142C93.2894 155.767 93.3633 155.463 93.511 155.23C93.6587 154.994 93.8562 154.81 94.1033 154.676C94.3505 154.543 94.6232 154.443 94.9215 154.378C95.2227 154.31 95.5252 154.256 95.8292 154.216C96.227 154.165 96.549 154.126 96.797 154.101C97.047 154.072 97.228 154.026 97.342 153.96C97.458 153.895 97.517 153.781 97.517 153.619V153.585C97.517 153.165 97.402 152.838 97.172 152.605C96.944 152.372 96.599 152.256 96.136 152.256C95.6559 152.256 95.2795 152.361 95.0067 152.571C94.734 152.781 94.5423 153.006 94.4315 153.244L93.4769 152.903C93.6474 152.506 93.8746 152.196 94.1587 151.974C94.4457 151.75 94.7582 151.594 95.0962 151.506C95.4371 151.415 95.7724 151.369 96.102 151.369C96.312 151.369 96.554 151.395 96.826 151.446C97.102 151.494 97.368 151.595 97.623 151.749C97.882 151.902 98.096 152.134 98.267 152.443C98.437 152.753 98.522 153.168 98.522 153.688V158H97.517V157.114H97.466C97.397 157.256 97.284 157.408 97.125 157.57C96.966 157.732 96.754 157.869 96.49 157.983C96.225 158.097 95.9031 158.153 95.5224 158.153ZM95.6758 157.25C96.074 157.25 96.409 157.172 96.681 157.016C96.957 156.859 97.164 156.658 97.304 156.411C97.446 156.163 97.517 155.903 97.517 155.631V154.71C97.474 154.761 97.38 154.808 97.235 154.851C97.093 154.891 96.929 154.926 96.741 154.957C96.556 154.986 96.376 155.011 96.2 155.034C96.027 155.054 95.886 155.071 95.7781 155.085C95.5167 155.119 95.2724 155.175 95.0451 155.251C94.8207 155.325 94.6388 155.437 94.4996 155.588C94.3633 155.736 94.2951 155.937 94.2951 156.193C94.2951 156.543 94.4244 156.807 94.6829 156.986C94.9442 157.162 95.2752 157.25 95.6758 157.25ZM108.369 152.92L107.466 153.176C107.409 153.026 107.325 152.879 107.214 152.737C107.107 152.592 106.959 152.473 106.771 152.379C106.584 152.286 106.344 152.239 106.051 152.239C105.651 152.239 105.317 152.331 105.05 152.516C104.786 152.697 104.653 152.929 104.653 153.21C104.653 153.46 104.744 153.658 104.926 153.803C105.108 153.947 105.392 154.068 105.778 154.165L106.75 154.403C107.335 154.545 107.771 154.763 108.058 155.055C108.345 155.345 108.489 155.719 108.489 156.176C108.489 156.551 108.381 156.886 108.165 157.182C107.952 157.477 107.653 157.71 107.27 157.881C106.886 158.051 106.44 158.136 105.932 158.136C105.264 158.136 104.712 157.991 104.274 157.702C103.837 157.412 103.56 156.989 103.443 156.432L104.398 156.193C104.489 156.545 104.661 156.81 104.913 156.986C105.169 157.162 105.503 157.25 105.915 157.25C106.384 157.25 106.756 157.151 107.031 156.952C107.31 156.75 107.449 156.509 107.449 156.227C107.449 156 107.369 155.81 107.21 155.656C107.051 155.5 106.807 155.384 106.477 155.307L105.386 155.051C104.787 154.909 104.347 154.689 104.065 154.391C103.787 154.089 103.648 153.713 103.648 153.261C103.648 152.892 103.751 152.565 103.959 152.281C104.169 151.997 104.455 151.774 104.815 151.612C105.179 151.45 105.591 151.369 106.051 151.369C106.699 151.369 107.207 151.511 107.577 151.795C107.949 152.08 108.213 152.455 108.369 152.92ZM112.662 158.136C112.071 158.136 111.552 157.996 111.106 157.714C110.663 157.433 110.316 157.04 110.066 156.534C109.819 156.028 109.696 155.437 109.696 154.761C109.696 154.08 109.819 153.484 110.066 152.976C110.316 152.467 110.663 152.072 111.106 151.791C111.552 151.51 112.071 151.369 112.662 151.369C113.252 151.369 113.77 151.51 114.213 151.791C114.659 152.072 115.005 152.467 115.252 152.976C115.502 153.484 115.627 154.08 115.627 154.761C115.627 155.437 115.502 156.028 115.252 156.534C115.005 157.04 114.659 157.433 114.213 157.714C113.77 157.996 113.252 158.136 112.662 158.136ZM112.662 157.233C113.11 157.233 113.48 157.118 113.77 156.888C114.059 156.658 114.274 156.355 114.413 155.98C114.552 155.605 114.622 155.199 114.622 154.761C114.622 154.324 114.552 153.916 114.413 153.538C114.274 153.161 114.059 152.855 113.77 152.622C113.48 152.389 113.11 152.273 112.662 152.273C112.213 152.273 111.843 152.389 111.554 152.622C111.264 152.855 111.049 153.161 110.91 153.538C110.771 153.916 110.701 154.324 110.701 154.761C110.701 155.199 110.771 155.605 110.91 155.98C111.049 156.355 111.264 156.658 111.554 156.888C111.843 157.118 112.213 157.233 112.662 157.233ZM117.163 158V151.455H118.134V152.443H118.202C118.322 152.119 118.538 151.857 118.85 151.655C119.163 151.453 119.515 151.352 119.907 151.352C119.981 151.352 120.073 151.354 120.184 151.357C120.295 151.359 120.379 151.364 120.435 151.369V152.392C120.401 152.384 120.323 152.371 120.201 152.354C120.082 152.334 119.955 152.324 119.822 152.324C119.504 152.324 119.219 152.391 118.969 152.524C118.722 152.655 118.526 152.837 118.381 153.07C118.239 153.3 118.168 153.562 118.168 153.858V158H117.163ZM124.884 151.455V152.307H121.492V151.455H124.884ZM122.481 149.886H123.487V156.125C123.487 156.409 123.528 156.622 123.61 156.764C123.695 156.903 123.803 156.997 123.934 157.045C124.067 157.091 124.208 157.114 124.356 157.114C124.467 157.114 124.558 157.108 124.629 157.097C124.7 157.082 124.756 157.071 124.799 157.062L125.004 157.966C124.935 157.991 124.84 158.017 124.718 158.043C124.596 158.071 124.441 158.085 124.254 158.085C123.969 158.085 123.691 158.024 123.418 157.902C123.148 157.78 122.924 157.594 122.745 157.344C122.569 157.094 122.481 156.778 122.481 156.398V149.886ZM129.071 158.136C128.44 158.136 127.896 157.997 127.439 157.719C126.984 157.438 126.634 157.045 126.386 156.543C126.142 156.037 126.02 155.449 126.02 154.778C126.02 154.108 126.142 153.517 126.386 153.006C126.634 152.491 126.977 152.091 127.418 151.804C127.861 151.514 128.378 151.369 128.969 151.369C129.31 151.369 129.646 151.426 129.979 151.54C130.311 151.653 130.614 151.838 130.886 152.094C131.159 152.347 131.376 152.682 131.538 153.099C131.7 153.517 131.781 154.031 131.781 154.642V155.068H126.736V154.199H130.759C130.759 153.83 130.685 153.5 130.537 153.21C130.392 152.92 130.185 152.692 129.915 152.524C129.648 152.357 129.332 152.273 128.969 152.273C128.568 152.273 128.222 152.372 127.929 152.571C127.639 152.767 127.416 153.023 127.26 153.338C127.104 153.653 127.026 153.991 127.026 154.352V154.932C127.026 155.426 127.111 155.845 127.281 156.189C127.455 156.53 127.695 156.79 128.001 156.969C128.308 157.145 128.665 157.233 129.071 157.233C129.335 157.233 129.574 157.196 129.787 157.122C130.003 157.045 130.189 156.932 130.345 156.781C130.501 156.628 130.622 156.437 130.707 156.21L131.679 156.483C131.577 156.812 131.405 157.102 131.163 157.352C130.922 157.599 130.624 157.793 130.268 157.932C129.913 158.068 129.514 158.136 129.071 158.136Z" fill="white"/>
<path fill-rule="evenodd" clip-rule="evenodd" d="M107.777 49.0358C96.257 46.8091 87.4574 44.6891 85.5241 44.2091L85.5108 44.0625L85.4974 44.0225C87.5241 43.5958 97.471 41.7025 108.257 42.6891C127.724 44.4758 125.471 18.2358 109.964 22.7958C115.604 8.0091 93.7908 2.0758 90.0441 21.4491C87.8041 33.0491 85.6574 41.8758 85.2041 43.7292C85.1641 43.7158 85.1241 43.7158 85.0841 43.7158L85.0308 43.7292C84.6174 41.7158 82.7108 31.7692 83.6974 20.9692C85.4841 1.50249 59.2441 3.75578 63.8041 19.2624C49.0041 13.6224 43.0841 35.4224 62.4574 39.1691C74.0441 41.4224 82.8708 43.5558 84.7374 44.0091C84.7241 44.0491 84.7108 44.1025 84.7241 44.1425V44.1958C82.6708 44.6225 72.7374 46.5158 61.9641 45.5291C42.5108 43.7425 44.7508 69.9824 60.2574 65.4224C54.6174 80.2091 76.4308 86.1291 80.1774 66.7558C82.1641 56.5558 84.0574 48.4891 84.7908 45.4358C85.0974 51.4491 84.4841 57.4758 83.2441 63.3424C81.9241 69.6491 79.9374 75.8091 77.8574 81.9425C75.6841 88.0358 73.6841 94.4225 72.8574 101.009C71.9641 107.596 72.1108 114.382 73.4041 120.969V120.982L73.4174 121.049C73.6574 122.076 74.6841 122.716 75.7108 122.476C76.7508 122.223 77.3908 121.196 77.1508 120.169C75.7108 114.036 75.3108 107.676 75.9241 101.369C76.2174 98.209 76.7508 95.0625 77.4841 91.9558C78.2041 88.8358 79.1508 85.7824 80.0841 82.6491C81.9374 76.4091 83.6974 70.1025 84.7774 63.6358C85.6574 58.4625 86.0574 53.1958 85.8174 47.9558C86.4574 52.2225 87.2308 59.5158 86.5241 67.2491C84.7374 86.7024 110.991 84.4625 106.431 68.9558C121.217 74.5958 127.151 52.7825 107.777 49.0358Z" fill="white"/>
</svg>
